<svg width="101" height="101" viewBox="0 0 101 101" fill="none" xmlns="http://www.w3.org/2000/svg">
<path d="M18.8296 10.8305L28.3163 0.818715C30.0585 -1.02129 31.8043 0.815107 31.8043 0.815107L56.5923 26.9179L62.1003 19.7491C63.7311 17.6223 65.952 16.0228 68.4858 15.1502C71.0195 14.2777 73.7541 14.1706 76.3483 14.8424L72.8134 11.3031C72.3849 10.8649 72.1449 10.2763 72.1449 9.66335C72.1449 9.05039 72.3849 8.46179 72.8134 8.02358L72.9721 7.86123C73.4102 7.43263 73.9987 7.19263 74.6115 7.19263C75.2243 7.19263 75.8128 7.43263 76.2509 7.86123L81.5498 13.1648C82.383 12.6992 83.3454 12.5185 84.2908 12.6501C85.2361 12.7816 86.1127 13.2182 86.7873 13.8936L87.0506 14.1569C88.5078 15.6145 88.7567 17.7648 87.8225 19.4352L93.1177 24.7315C93.5473 25.1699 93.7879 25.7593 93.7879 26.3731C93.7879 26.9869 93.5473 27.5763 93.1177 28.0147L92.9554 28.1734C92.5173 28.602 91.9288 28.842 91.316 28.842C90.7031 28.842 90.1146 28.602 89.6765 28.1734L86.1344 24.6305C86.8101 27.2246 86.705 29.9605 85.8323 32.4951C84.9596 35.0296 83.3581 37.2501 81.2287 38.8779L74.0578 44.3979L100.184 69.1874C100.184 69.1874 102.02 70.9336 100.184 72.6762L90.1779 82.1721C90.1779 82.1721 88.7279 83.5358 86.5708 82.1721L80.3883 78.6905C80.3392 78.6684 80.2911 78.6444 80.244 78.6183L59.276 66.7846L59.2615 66.7954L51.0013 62.1449L27.548 80.1986L35.8154 93.9877C36.0241 94.3407 36.1096 94.7529 36.0587 95.1597C36.0078 95.5665 35.8232 95.9449 35.5341 96.2354L31.3138 100.446C31.1452 100.621 30.9429 100.76 30.7192 100.856C30.4954 100.951 30.2548 101 30.0116 101C29.7685 101 29.5278 100.951 29.304 100.856C29.0803 100.76 28.8781 100.621 28.7095 100.446L16.0846 87.8183L14.3172 89.5862C14.1357 89.7722 13.9189 89.92 13.6795 90.0209C13.44 90.1218 13.1828 90.1738 12.923 90.1738C12.6632 90.1738 12.406 90.1218 12.1666 90.0209C11.9271 89.92 11.7103 89.7722 11.5289 89.5862L11.4098 89.4671C11.2239 89.2856 11.0761 89.0688 10.9752 88.8293C10.8743 88.5898 10.8223 88.3326 10.8223 88.0727C10.8223 87.8128 10.8743 87.5556 10.9752 87.3161C11.0761 87.0766 11.2239 86.8597 11.4098 86.6783L13.1773 84.9104L0.552495 72.2829C0.377736 72.114 0.238756 71.9117 0.143836 71.6879C0.0489168 71.4642 0 71.2236 0 70.9805C0 70.7374 0.0489168 70.4969 0.143836 70.2731C0.238756 70.0493 0.377736 69.847 0.552495 69.6781L4.76197 65.4569C5.05248 65.1677 5.43079 64.9831 5.83751 64.9322C6.24423 64.8812 6.65635 64.9668 7.00919 65.1755L20.8135 73.4555L38.8634 49.9792L18.8296 14.4383C17.6393 12.454 18.8296 10.8305 18.8296 10.8305ZM61.9236 64.1364L81.492 75.1764L82.2279 74.4404C82.4155 74.2528 82.5643 74.0301 82.6658 73.785C82.7673 73.5398 82.8196 73.2771 82.8196 73.0117C82.8196 72.7464 82.7673 72.4837 82.6658 72.2385C82.5643 71.9934 82.4155 71.7706 82.2279 71.583L69.7834 59.136C69.5958 58.9483 69.3732 58.7995 69.1281 58.6979C68.883 58.5964 68.6203 58.5441 68.355 58.5441C68.0897 58.5441 67.827 58.5964 67.582 58.6979C67.3369 58.7995 67.1142 58.9483 66.9266 59.136L61.9236 64.1364ZM23.1834 22.1591L23.1906 22.1555L34.2247 41.7389L23.1834 22.1591ZM36.8687 39.0871L41.879 34.0722C42.0665 33.8846 42.2154 33.6619 42.3169 33.4168C42.4184 33.1716 42.4707 32.9089 42.4707 32.6435C42.4707 32.3782 42.4184 32.1155 42.3169 31.8703C42.2154 31.6252 42.0665 31.4024 41.879 31.2148L29.4164 18.775C29.2289 18.5873 29.0062 18.4385 28.7611 18.3369C28.516 18.2354 28.2533 18.1831 27.988 18.1831C27.7228 18.1831 27.4601 18.2354 27.215 18.3369C26.9699 18.4385 26.7472 18.5873 26.5596 18.775L25.8346 19.5074L36.8687 39.0871ZM69.08 22.7364L78.206 31.8715C78.9707 32.6363 80.1538 32.6363 80.9185 31.9075L81.189 31.6405C82.327 30.4914 82.9654 28.9394 82.9654 27.322C82.9654 25.7045 82.327 24.1525 81.189 23.0034L77.9787 19.7924C76.8304 18.6544 75.2793 18.016 73.6628 18.016C72.0464 18.016 70.4953 18.6544 69.347 19.7924L69.08 20.063C68.7308 20.4202 68.5353 20.9 68.5353 21.3997C68.5353 21.8993 68.7308 22.3791 69.08 22.7364Z" fill="white"/>
</svg>
