<svg width="24" height="34" viewBox="0 0 24 34" fill="none" xmlns="http://www.w3.org/2000/svg">
<path d="M20.5556 1H3.44444C2.09441 1 1 2.10207 1 3.46154V30.5385C1 31.8979 2.09441 33 3.44444 33H20.5556C21.9056 33 23 31.8979 23 30.5385V3.46154C23 2.10207 21.9056 1 20.5556 1Z" stroke="#DCBB87" stroke-width="2" stroke-linecap="round" stroke-linejoin="round"/>
<path d="M5 6H19V11H5V6Z" stroke="#DCBB87" stroke-width="2" stroke-linecap="round" stroke-linejoin="round"/>
<path d="M5 18C6.10457 18 7 17.3284 7 16.5C7 15.6716 6.10457 15 5 15C3.89543 15 3 15.6716 3 16.5C3 17.3284 3.89543 18 5 18Z" fill="#DCBB87"/>
<path d="M12 18C13.1046 18 14 17.3284 14 16.5C14 15.6716 13.1046 15 12 15C10.8954 15 10 15.6716 10 16.5C10 17.3284 10.8954 18 12 18Z" fill="#DCBB87"/>
<path d="M19 18C20.1046 18 21 17.3284 21 16.5C21 15.6716 20.1046 15 19 15C17.8954 15 17 15.6716 17 16.5C17 17.3284 17.8954 18 19 18Z" fill="#DCBB87"/>
<path d="M5 24C6.10457 24 7 23.3284 7 22.5C7 21.6716 6.10457 21 5 21C3.89543 21 3 21.6716 3 22.5C3 23.3284 3.89543 24 5 24Z" fill="#DCBB87"/>
<path d="M12 24C13.1046 24 14 23.3284 14 22.5C14 21.6716 13.1046 21 12 21C10.8954 21 10 21.6716 10 22.5C10 23.3284 10.8954 24 12 24Z" fill="#DCBB87"/>
<path d="M5 30C6.10457 30 7 29.3284 7 28.5C7 27.6716 6.10457 27 5 27C3.89543 27 3 27.6716 3 28.5C3 29.3284 3.89543 30 5 30Z" fill="#DCBB87"/>
<path d="M12 30C13.1046 30 14 29.3284 14 28.5C14 27.6716 13.1046 27 12 27C10.8954 27 10 27.6716 10 28.5C10 29.3284 10.8954 30 12 30Z" fill="#DCBB87"/>
<path d="M21 22.6875C21 21.7555 20.1046 21 19 21C17.8954 21 17 21.7555 17 22.6875V28.3125C17 29.2445 17.8954 30 19 30C20.1046 30 21 29.2445 21 28.3125V22.6875Z" fill="#DCBB87"/>
</svg>
