<svg width="24" height="34" viewBox="0 0 24 34" fill="none" xmlns="http://www.w3.org/2000/svg">
<path d="M24 3.64286C23.999 2.67702 23.6194 1.75103 22.9445 1.06808C22.2696 0.385127 21.3545 0.00100451 20.4 0H3.6C2.64553 0.00100451 1.73043 0.385127 1.05551 1.06808C0.380596 1.75103 0.000992694 2.67702 0 3.64286V30.3571C0.000992694 31.323 0.380596 32.249 1.05551 32.9319C1.73043 33.6149 2.64553 33.999 3.6 34H20.4C21.3545 33.999 22.2696 33.6149 22.9445 32.9319C23.6194 32.249 23.999 31.323 24 30.3571V3.64286ZM5.4 30.3571C5.04399 30.3571 4.69598 30.2503 4.39997 30.0502C4.10397 29.85 3.87325 29.5656 3.73702 29.2327C3.60078 28.8999 3.56513 28.5337 3.63459 28.1804C3.70404 27.827 3.87547 27.5025 4.12721 27.2478C4.37894 26.993 4.69967 26.8196 5.04884 26.7493C5.398 26.679 5.75992 26.7151 6.08883 26.8529C6.41774 26.9908 6.69886 27.2243 6.89665 27.5238C7.09443 27.8233 7.2 28.1755 7.2 28.5357C7.2 29.0188 7.01036 29.4821 6.67279 29.8237C6.33523 30.1652 5.87739 30.3571 5.4 30.3571ZM5.4 24.2857C5.04399 24.2857 4.69598 24.1789 4.39997 23.9787C4.10397 23.7786 3.87325 23.4941 3.73702 23.1613C3.60078 22.8285 3.56513 22.4623 3.63459 22.1089C3.70404 21.7556 3.87547 21.4311 4.12721 21.1763C4.37894 20.9216 4.69967 20.7481 5.04884 20.6779C5.398 20.6076 5.75992 20.6436 6.08883 20.7815C6.41774 20.9194 6.69886 21.1528 6.89665 21.4524C7.09443 21.7519 7.2 22.104 7.2 22.4643C7.2 22.9474 7.01036 23.4106 6.67279 23.7522C6.33523 24.0938 5.87739 24.2857 5.4 24.2857ZM5.4 18.2143C5.04399 18.2143 4.69598 18.1075 4.39997 17.9073C4.10397 17.7072 3.87325 17.4227 3.73702 17.0899C3.60078 16.7571 3.56513 16.3908 3.63459 16.0375C3.70404 15.6842 3.87547 15.3596 4.12721 15.1049C4.37894 14.8502 4.69967 14.6767 5.04884 14.6064C5.398 14.5361 5.75992 14.5722 6.08883 14.7101C6.41774 14.8479 6.69886 15.0814 6.89665 15.3809C7.09443 15.6805 7.2 16.0326 7.2 16.3929C7.2 16.8759 7.01036 17.3392 6.67279 17.6808C6.33523 18.0224 5.87739 18.2143 5.4 18.2143ZM12 30.3571C11.644 30.3571 11.296 30.2503 11 30.0502C10.704 29.85 10.4733 29.5656 10.337 29.2327C10.2008 28.8999 10.1651 28.5337 10.2346 28.1804C10.304 27.827 10.4755 27.5025 10.7272 27.2478C10.9789 26.993 11.2997 26.8196 11.6488 26.7493C11.998 26.679 12.3599 26.7151 12.6888 26.8529C13.0177 26.9908 13.2989 27.2243 13.4966 27.5238C13.6944 27.8233 13.8 28.1755 13.8 28.5357C13.8 29.0188 13.6104 29.4821 13.2728 29.8237C12.9352 30.1652 12.4774 30.3571 12 30.3571ZM12 24.2857C11.644 24.2857 11.296 24.1789 11 23.9787C10.704 23.7786 10.4733 23.4941 10.337 23.1613C10.2008 22.8285 10.1651 22.4623 10.2346 22.1089C10.304 21.7556 10.4755 21.4311 10.7272 21.1763C10.9789 20.9216 11.2997 20.7481 11.6488 20.6779C11.998 20.6076 12.3599 20.6436 12.6888 20.7815C13.0177 20.9194 13.2989 21.1528 13.4966 21.4524C13.6944 21.7519 13.8 22.104 13.8 22.4643C13.8 22.9474 13.6104 23.4106 13.2728 23.7522C12.9352 24.0938 12.4774 24.2857 12 24.2857ZM12 18.2143C11.644 18.2143 11.296 18.1075 11 17.9073C10.704 17.7072 10.4733 17.4227 10.337 17.0899C10.2008 16.7571 10.1651 16.3908 10.2346 16.0375C10.304 15.6842 10.4755 15.3596 10.7272 15.1049C10.9789 14.8502 11.2997 14.6767 11.6488 14.6064C11.998 14.5361 12.3599 14.5722 12.6888 14.7101C13.0177 14.8479 13.2989 15.0814 13.4966 15.3809C13.6944 15.6805 13.8 16.0326 13.8 16.3929C13.8 16.8759 13.6104 17.3392 13.2728 17.6808C12.9352 18.0224 12.4774 18.2143 12 18.2143ZM20.4 28.5357C20.4 29.0188 20.2104 29.4821 19.8728 29.8237C19.5352 30.1652 19.0774 30.3571 18.6 30.3571C18.1226 30.3571 17.6648 30.1652 17.3272 29.8237C16.9896 29.4821 16.8 29.0188 16.8 28.5357V22.4643C16.8 21.9812 16.9896 21.5179 17.3272 21.1763C17.6648 20.8348 18.1226 20.6429 18.6 20.6429C19.0774 20.6429 19.5352 20.8348 19.8728 21.1763C20.2104 21.5179 20.4 21.9812 20.4 22.4643V28.5357ZM18.6 18.2143C18.244 18.2143 17.896 18.1075 17.6 17.9073C17.304 17.7072 17.0733 17.4227 16.937 17.0899C16.8008 16.7571 16.7651 16.3908 16.8346 16.0375C16.904 15.6842 17.0755 15.3596 17.3272 15.1049C17.5789 14.8502 17.8997 14.6767 18.2488 14.6064C18.598 14.5361 18.9599 14.5722 19.2888 14.7101C19.6177 14.8479 19.8989 15.0814 20.0966 15.3809C20.2944 15.6805 20.4 16.0326 20.4 16.3929C20.4 16.8759 20.2104 17.3392 19.8728 17.6808C19.5352 18.0224 19.0774 18.2143 18.6 18.2143ZM20.0483 10.5726C19.8233 10.8004 19.5182 10.9284 19.2 10.9286H4.8C4.48174 10.9286 4.17652 10.8006 3.95147 10.5729C3.72643 10.3452 3.6 10.0363 3.6 9.71429V4.85714C3.6 4.53509 3.72643 4.22624 3.95147 3.99851C4.17652 3.77079 4.48174 3.64286 4.8 3.64286H19.2C19.5183 3.64286 19.8235 3.77079 20.0485 3.99851C20.2736 4.22624 20.4 4.53509 20.4 4.85714V9.71429C20.3999 10.0363 20.2733 10.345 20.0483 10.5726Z" fill="#DCBB87"/>
</svg>
