<svg width="31" height="31" viewBox="0 0 31 31" fill="none" xmlns="http://www.w3.org/2000/svg">
<path fill-rule="evenodd" clip-rule="evenodd" d="M28.5861 25.8778C30.7722 23.0932 31.9727 19.6623 31.9995 16.1225C32.0264 12.5826 30.8782 9.13386 28.7346 6.31641C27.1533 4.2363 25.0863 2.57515 22.7146 1.47817C20.3428 0.381185 17.7384 -0.11823 15.1289 0.023581C12.5195 0.165392 9.9846 0.94411 7.74571 2.29166C5.50683 3.63921 3.63217 5.51458 2.28561 7.75381V2.2853H0V10.2835L1.1428 11.4261H9.14243V9.14093H4.13923C5.6661 6.50177 8.02815 4.44583 10.8529 3.2973C13.6777 2.14877 16.8045 1.973 19.7402 2.7977C22.6759 3.6224 25.2536 5.40065 27.0667 7.85205C28.8799 10.3034 29.8253 13.2885 29.754 16.3366C29.6826 19.3846 28.5986 22.3222 26.6728 24.6861C24.747 27.0501 22.089 28.7059 19.1179 29.3924C16.1468 30.0789 13.0316 29.7571 10.2637 28.4778C7.49572 27.1984 5.23242 25.0343 3.83068 22.3266L1.80334 23.3824C3.03786 25.7565 4.84832 27.7831 7.06896 29.2766C9.2896 30.77 11.8495 31.6827 14.5142 31.931C17.179 32.1793 19.8634 31.7552 22.3218 30.6977C24.7803 29.6402 26.9341 27.983 28.5861 25.8778ZM20.9042 23.6612L22.5224 22.0455L15.9992 15.5212V6.85572H13.7136V15.9966L14.0473 16.8055L20.9042 23.6612Z" fill="#D9D9D9"/>
</svg>
