<svg width="31" height="31" viewBox="0 0 31 31" fill="none" xmlns="http://www.w3.org/2000/svg">
<path d="M1.9375 27.5803C3.68125 25.8689 5.70787 24.5204 8.01737 23.5348C10.3269 22.5493 12.8211 22.0571 15.5 22.0584C18.1789 22.0597 20.6738 22.5519 22.9846 23.5348C25.2954 24.5178 27.3213 25.8663 29.0625 27.5803V1.9375H1.9375V27.5803ZM15.5 17.5867C17.1249 17.5867 18.4999 17.0242 19.6249 15.8991C20.75 14.7741 21.3125 13.3991 21.3125 11.7742C21.3125 10.1493 20.75 8.77429 19.6249 7.64925C18.4999 6.52421 17.1249 5.96169 15.5 5.96169C13.8751 5.96169 12.5001 6.52421 11.3751 7.64925C10.25 8.77429 9.6875 10.1493 9.6875 11.7742C9.6875 13.3991 10.25 14.7741 11.3751 15.8991C12.5001 17.0242 13.8751 17.5867 15.5 17.5867ZM0 31V0H31V31H0ZM3.65219 29.0625H27.3478V28.7273C25.6441 27.1256 23.7886 25.9367 21.7814 25.1604C19.7741 24.3841 17.6803 23.9959 15.5 23.9959C13.3687 23.9959 11.2937 24.3776 9.27481 25.141C7.25594 25.9044 5.38108 27.0753 3.65025 28.6537L3.65219 29.0625ZM15.5 15.6492C14.4447 15.6492 13.5347 15.2675 12.7701 14.5041C12.0067 13.7395 11.625 12.8295 11.625 11.7742C11.625 10.7189 12.0067 9.80892 12.7701 9.04425C13.5347 8.28088 14.4447 7.89919 15.5 7.89919C16.5553 7.89919 17.4653 8.28088 18.2299 9.04425C18.9933 9.80892 19.375 10.7189 19.375 11.7742C19.375 12.8295 18.9933 13.7395 18.2299 14.5041C17.4666 15.2688 16.5566 15.6505 15.5 15.6492Z" fill="#D9D9D9"/>
</svg>
