<svg width="31" height="31" viewBox="0 0 31 31" fill="none" xmlns="http://www.w3.org/2000/svg">
<path d="M15.5 17.5867C17.1249 17.5867 18.4999 17.0242 19.6249 15.8991C20.75 14.7741 21.3125 13.3991 21.3125 11.7742C21.3125 10.1493 20.75 8.77429 19.6249 7.64925C18.4999 6.52421 17.1249 5.96169 15.5 5.96169C13.8751 5.96169 12.5001 6.52421 11.3751 7.64925C10.25 8.77429 9.6875 10.1493 9.6875 11.7742C9.6875 13.3991 10.25 14.7741 11.3751 15.8991C12.5001 17.0242 13.8751 17.5867 15.5 17.5867ZM0 31V0H31V31H0ZM1.9375 29.0625H29.0625V27.5784C27.3188 25.8669 25.2928 24.5191 22.9846 23.5348C20.6764 22.5506 18.1815 22.0584 15.5 22.0584C12.8185 22.0584 10.3236 22.5506 8.01544 23.5348C5.70723 24.5191 3.68125 25.8676 1.9375 27.5803V29.0625Z" fill="#DCBB87"/>
</svg>
