<svg width="32" height="28" viewBox="0 0 32 28" fill="none" xmlns="http://www.w3.org/2000/svg">
<path d="M20.5735 21.9143L20.5838 21.9426C20.7625 22.4704 20.4753 22.9048 19.9474 22.9048C19.938 22.9048 19.9281 22.9044 19.9182 22.904L17.6053 22.837L17.1051 26.2898C17.0649 26.5671 16.8431 26.744 16.5346 26.744C16.5346 26.744 16.5346 26.744 16.5342 26.744C16.2888 26.744 16.0185 26.5421 15.9354 26.2966C15.9292 26.2785 15.9243 26.2608 15.9205 26.243L15.1599 22.7659L13.3219 22.7126L13.3047 23.3608C13.2983 23.6063 13.1192 23.7701 12.8579 23.7705C12.6194 23.7705 12.356 23.574 12.2752 23.3355C12.2751 23.3351 12.2749 23.3347 12.2748 23.3344L12.0332 22.6209L11.614 22.5393C11.3125 22.4806 11.0242 22.2301 10.9269 21.9426C10.8294 21.6547 10.948 21.4042 11.2099 21.3459L11.5739 21.2647L11.3319 20.5501C11.2576 20.3315 11.359 20.1451 11.5666 20.1179L11.6199 20.1147C11.8809 20.1147 12.1706 20.2786 12.3435 20.5236L12.8006 21.1711L14.5957 21.1182L13.0253 17.6937L13.0142 17.6672L13.0045 17.6407C12.9207 17.3935 13.0533 17.193 13.3002 17.193C13.583 17.193 13.8935 17.3413 14.1193 17.5798L14.1784 17.6473L16.9748 21.0479L19.2675 20.9804C19.2768 20.9801 19.2862 20.9801 19.2956 20.9801C19.813 20.9801 20.3834 21.397 20.5735 21.9143Z" fill="#DCBB87"/>
<path d="M15.6971 1.67697L2.41604 6.98913C2.2146 7.07808 2.05109 7.21281 1.92682 7.39202C1.80516 7.57122 1.74368 7.77267 1.74368 7.99505V24.7595C1.74368 25.0054 1.86141 25.2448 2.09687 25.4803C2.33102 25.7157 2.57171 25.8322 2.81893 25.8322H6.97604V14.6977C6.97604 13.9168 7.25074 13.2523 7.80014 12.7029C8.34823 12.1535 9.01405 11.8801 9.79498 11.8801H21.6005C22.3801 11.8801 23.0446 12.1535 23.594 12.7029C24.1434 13.2523 24.4181 13.9168 24.4181 14.6977V25.8322H28.5778C28.8225 25.8322 29.0631 25.7157 29.2973 25.4803C29.5327 25.2448 29.6505 25.0054 29.6505 24.7595V7.99374C29.6505 7.77005 29.589 7.56992 29.4647 7.39071C29.3431 7.2115 29.1809 7.07808 28.9807 6.98913L15.6971 1.67697ZM0 24.7582V7.99505C0 7.40248 0.162203 6.8714 0.487918 6.4031C0.813632 5.9335 1.24399 5.59078 1.779 5.37363L14.6571 0.228916C14.9973 0.0771776 15.3439 0 15.6971 0C16.0503 0 16.3969 0.0758689 16.737 0.227607L29.6165 5.37233C30.1515 5.58947 30.5818 5.93219 30.9076 6.40179C31.232 6.8727 31.3942 7.40379 31.3942 7.99505V24.7595C31.3942 25.5392 31.1195 26.2037 30.5714 26.7531C30.022 27.3025 29.3575 27.5772 28.5778 27.5772H22.6731V14.6977C22.6731 14.3838 22.5724 14.1261 22.3723 13.9259C22.1708 13.7245 21.9131 13.6238 21.6005 13.6238H9.79367C9.48104 13.6238 9.22334 13.7245 9.0219 13.9259C8.82176 14.1261 8.72104 14.3838 8.72104 14.6977V27.5772H2.81893C2.0367 27.5772 1.37219 27.3025 0.822789 26.7531C0.274699 26.205 0 25.5405 0 24.7595" fill="#DCBB87"/>
</svg>
